<mxfile host="app.diagrams.net" modified="2024-06-11T10:50:15.731Z" agent="Mozilla/5.0 (Macintosh; Intel Mac OS X 10_15_7) AppleWebKit/537.36 (KHTML, like Gecko) Chrome/125.0.0.0 Safari/537.36" etag="8oUhuBFjLNlsfDtff9gf" version="24.5.2" type="device">
  <diagram name="Page-1" id="UuaVYHqYEeruNvDf7hTw">
    <mxGraphModel dx="1633" dy="939" grid="1" gridSize="10" guides="1" tooltips="1" connect="1" arrows="1" fold="1" page="1" pageScale="1" pageWidth="827" pageHeight="1169" background="none" math="0" shadow="0">
      <root>
        <mxCell id="0" />
        <mxCell id="1" parent="0" />
        <mxCell id="JAojj6oCfwSo5Z4DhQhG-3" value="Get request with JWT" style="edgeStyle=orthogonalEdgeStyle;rounded=0;orthogonalLoop=1;jettySize=auto;html=1;exitX=1;exitY=0.25;exitDx=0;exitDy=0;entryX=0;entryY=0.25;entryDx=0;entryDy=0;fontColor=#FF0000;labelBackgroundColor=none;" parent="1" source="JAojj6oCfwSo5Z4DhQhG-1" target="JAojj6oCfwSo5Z4DhQhG-2" edge="1">
          <mxGeometry relative="1" as="geometry" />
        </mxCell>
        <mxCell id="JAojj6oCfwSo5Z4DhQhG-1" value="Copilot Usage Dashboard" style="rounded=1;whiteSpace=wrap;html=1;fontColor=#FF0000;labelBackgroundColor=none;" parent="1" vertex="1">
          <mxGeometry x="40" y="760" width="80" height="80" as="geometry" />
        </mxCell>
        <mxCell id="JAojj6oCfwSo5Z4DhQhG-4" value="Returns Github App&lt;div&gt;&amp;nbsp;Installation ID&lt;/div&gt;" style="edgeStyle=orthogonalEdgeStyle;rounded=0;orthogonalLoop=1;jettySize=auto;html=1;exitX=0;exitY=0.75;exitDx=0;exitDy=0;entryX=1;entryY=0.75;entryDx=0;entryDy=0;fontColor=#FF0000;labelBackgroundColor=none;" parent="1" source="JAojj6oCfwSo5Z4DhQhG-2" target="JAojj6oCfwSo5Z4DhQhG-1" edge="1">
          <mxGeometry relative="1" as="geometry" />
        </mxCell>
        <mxCell id="JAojj6oCfwSo5Z4DhQhG-2" value="GitHub RESTful API" style="rounded=1;whiteSpace=wrap;html=1;fontColor=#FF0000;labelBackgroundColor=none;" parent="1" vertex="1">
          <mxGeometry x="280" y="760" width="80" height="80" as="geometry" />
        </mxCell>
        <mxCell id="JAojj6oCfwSo5Z4DhQhG-5" value="Get request with&lt;div&gt;Installation ID&lt;/div&gt;" style="edgeStyle=orthogonalEdgeStyle;rounded=0;orthogonalLoop=1;jettySize=auto;html=1;exitX=1;exitY=0.25;exitDx=0;exitDy=0;entryX=0;entryY=0.25;entryDx=0;entryDy=0;fontColor=#FF0000;labelBackgroundColor=none;" parent="1" source="JAojj6oCfwSo5Z4DhQhG-6" target="JAojj6oCfwSo5Z4DhQhG-8" edge="1">
          <mxGeometry relative="1" as="geometry">
            <Array as="points">
              <mxPoint x="150" y="980" />
              <mxPoint x="150" y="980" />
            </Array>
          </mxGeometry>
        </mxCell>
        <mxCell id="JAojj6oCfwSo5Z4DhQhG-6" value="Copilot Usage Dashboard" style="rounded=1;whiteSpace=wrap;html=1;fontColor=#FF0000;labelBackgroundColor=none;" parent="1" vertex="1">
          <mxGeometry x="40" y="960" width="80" height="80" as="geometry" />
        </mxCell>
        <mxCell id="JAojj6oCfwSo5Z4DhQhG-7" value="Returns Access Token&lt;div&gt;for future requests&lt;/div&gt;" style="edgeStyle=orthogonalEdgeStyle;rounded=0;orthogonalLoop=1;jettySize=auto;html=1;exitX=0;exitY=0.75;exitDx=0;exitDy=0;entryX=1;entryY=0.75;entryDx=0;entryDy=0;fontColor=#FF0000;labelBackgroundColor=none;" parent="1" source="JAojj6oCfwSo5Z4DhQhG-8" target="JAojj6oCfwSo5Z4DhQhG-6" edge="1">
          <mxGeometry relative="1" as="geometry">
            <mxPoint as="offset" />
          </mxGeometry>
        </mxCell>
        <mxCell id="JAojj6oCfwSo5Z4DhQhG-8" value="GitHub RESTful API" style="rounded=1;whiteSpace=wrap;html=1;fontColor=#FF0000;labelBackgroundColor=none;" parent="1" vertex="1">
          <mxGeometry x="280" y="960" width="80" height="80" as="geometry" />
        </mxCell>
        <mxCell id="JAojj6oCfwSo5Z4DhQhG-9" value="1. Get the installation ID of the Github App by sending a GET request to /orgs/{org}/installation&amp;nbsp;" style="text;html=1;align=left;verticalAlign=middle;whiteSpace=wrap;rounded=0;fontColor=#FF0000;labelBackgroundColor=none;" parent="1" vertex="1">
          <mxGeometry x="40" y="680" width="320" height="40" as="geometry" />
        </mxCell>
        <mxCell id="JAojj6oCfwSo5Z4DhQhG-10" value="2. Get an Access Token by sending a GET request to /app/installations/{installation_id}/access_tokens" style="text;html=1;align=left;verticalAlign=middle;whiteSpace=wrap;rounded=0;fontColor=#FF0000;labelBackgroundColor=none;" parent="1" vertex="1">
          <mxGeometry x="40" y="880" width="320" height="40" as="geometry" />
        </mxCell>
        <mxCell id="JAojj6oCfwSo5Z4DhQhG-11" value="Get request with access&lt;div&gt;token&lt;/div&gt;" style="edgeStyle=orthogonalEdgeStyle;rounded=0;orthogonalLoop=1;jettySize=auto;html=1;exitX=1;exitY=0.25;exitDx=0;exitDy=0;entryX=0;entryY=0.25;entryDx=0;entryDy=0;labelBackgroundColor=none;" parent="1" source="JAojj6oCfwSo5Z4DhQhG-12" target="JAojj6oCfwSo5Z4DhQhG-14" edge="1">
          <mxGeometry relative="1" as="geometry">
            <mxPoint as="offset" />
          </mxGeometry>
        </mxCell>
        <mxCell id="JAojj6oCfwSo5Z4DhQhG-12" value="Copilot Usage Dashboard" style="rounded=1;whiteSpace=wrap;html=1;labelBackgroundColor=none;" parent="1" vertex="1">
          <mxGeometry x="440" y="760" width="80" height="80" as="geometry" />
        </mxCell>
        <mxCell id="JAojj6oCfwSo5Z4DhQhG-13" value="Returns Usage and&lt;div&gt;Seat Information for&lt;/div&gt;&lt;div&gt;last 28 days&lt;/div&gt;" style="edgeStyle=orthogonalEdgeStyle;rounded=0;orthogonalLoop=1;jettySize=auto;html=1;exitX=0;exitY=0.75;exitDx=0;exitDy=0;entryX=1;entryY=0.75;entryDx=0;entryDy=0;labelBackgroundColor=none;" parent="1" source="JAojj6oCfwSo5Z4DhQhG-14" target="JAojj6oCfwSo5Z4DhQhG-12" edge="1">
          <mxGeometry relative="1" as="geometry">
            <mxPoint as="offset" />
          </mxGeometry>
        </mxCell>
        <mxCell id="JAojj6oCfwSo5Z4DhQhG-14" value="GitHub RESTful API" style="rounded=1;whiteSpace=wrap;html=1;labelBackgroundColor=none;" parent="1" vertex="1">
          <mxGeometry x="680" y="760" width="80" height="80" as="geometry" />
        </mxCell>
        <mxCell id="JAojj6oCfwSo5Z4DhQhG-15" value="1. Send GET Requests to /orgs/{org}/copilot/usage and /orgs/{org}/copilot/billing/seats to get Copilot Usage and Seat information" style="text;html=1;align=left;verticalAlign=middle;whiteSpace=wrap;rounded=0;labelBackgroundColor=none;" parent="1" vertex="1">
          <mxGeometry x="440" y="680" width="320" height="40" as="geometry" />
        </mxCell>
        <mxCell id="JAojj6oCfwSo5Z4DhQhG-19" value="Access Token&lt;div&gt;Request&lt;/div&gt;" style="edgeStyle=orthogonalEdgeStyle;rounded=0;orthogonalLoop=1;jettySize=auto;html=1;entryX=1;entryY=0.75;entryDx=0;entryDy=0;align=center;fontColor=#FF0000;exitX=0;exitY=0.75;exitDx=0;exitDy=0;labelBackgroundColor=none;" parent="1" source="JAojj6oCfwSo5Z4DhQhG-16" target="JAojj6oCfwSo5Z4DhQhG-18" edge="1">
          <mxGeometry relative="1" as="geometry">
            <mxPoint x="480" y="630" as="sourcePoint" />
          </mxGeometry>
        </mxCell>
        <mxCell id="JAojj6oCfwSo5Z4DhQhG-21" value="API Request with&lt;div&gt;Token&lt;/div&gt;" style="edgeStyle=orthogonalEdgeStyle;rounded=0;orthogonalLoop=1;jettySize=auto;html=1;exitX=1;exitY=0.25;exitDx=0;exitDy=0;entryX=0;entryY=0.25;entryDx=0;entryDy=0;labelBackgroundColor=none;" parent="1" source="JAojj6oCfwSo5Z4DhQhG-16" target="JAojj6oCfwSo5Z4DhQhG-17" edge="1">
          <mxGeometry relative="1" as="geometry" />
        </mxCell>
        <mxCell id="JAojj6oCfwSo5Z4DhQhG-16" value="Copilot Usage Dashboard" style="rounded=1;whiteSpace=wrap;html=1;labelBackgroundColor=none;" parent="1" vertex="1">
          <mxGeometry x="320" y="520" width="160" height="80" as="geometry" />
        </mxCell>
        <mxCell id="JAojj6oCfwSo5Z4DhQhG-22" value="28 Days of Seat&lt;div&gt;and Usage Data&lt;/div&gt;" style="edgeStyle=orthogonalEdgeStyle;rounded=0;orthogonalLoop=1;jettySize=auto;html=1;exitX=0;exitY=0.75;exitDx=0;exitDy=0;entryX=1;entryY=0.75;entryDx=0;entryDy=0;labelBackgroundColor=none;" parent="1" source="JAojj6oCfwSo5Z4DhQhG-17" target="JAojj6oCfwSo5Z4DhQhG-16" edge="1">
          <mxGeometry relative="1" as="geometry" />
        </mxCell>
        <mxCell id="JAojj6oCfwSo5Z4DhQhG-17" value="GitHub RESTful API" style="rounded=1;whiteSpace=wrap;html=1;labelBackgroundColor=none;" parent="1" vertex="1">
          <mxGeometry x="640" y="520" width="120" height="80" as="geometry" />
        </mxCell>
        <mxCell id="JAojj6oCfwSo5Z4DhQhG-20" value="Access&lt;div&gt;Token&lt;/div&gt;" style="edgeStyle=orthogonalEdgeStyle;rounded=0;orthogonalLoop=1;jettySize=auto;html=1;exitX=1;exitY=0.25;exitDx=0;exitDy=0;entryX=0;entryY=0.25;entryDx=0;entryDy=0;align=center;fontColor=#FF0000;labelBackgroundColor=none;" parent="1" source="JAojj6oCfwSo5Z4DhQhG-18" target="JAojj6oCfwSo5Z4DhQhG-16" edge="1">
          <mxGeometry relative="1" as="geometry" />
        </mxCell>
        <mxCell id="JAojj6oCfwSo5Z4DhQhG-18" value="GitHub RESTful API" style="rounded=1;whiteSpace=wrap;html=1;fontColor=#FF0000;labelBackgroundColor=none;" parent="1" vertex="1">
          <mxGeometry x="40" y="520" width="120" height="80" as="geometry" />
        </mxCell>
        <mxCell id="JAojj6oCfwSo5Z4DhQhG-23" value="&lt;h1 style=&quot;margin-top: 0px;&quot;&gt;1. Authentication&lt;/h1&gt;" style="text;html=1;whiteSpace=wrap;overflow=hidden;rounded=0;labelBackgroundColor=none;" parent="1" vertex="1">
          <mxGeometry x="40" y="640" width="320" height="40" as="geometry" />
        </mxCell>
        <mxCell id="JAojj6oCfwSo5Z4DhQhG-24" value="&lt;h1 style=&quot;margin-top: 0px;&quot;&gt;2. Live Data&lt;/h1&gt;" style="text;html=1;whiteSpace=wrap;overflow=hidden;rounded=0;labelBackgroundColor=none;" parent="1" vertex="1">
          <mxGeometry x="440" y="640" width="180" height="40" as="geometry" />
        </mxCell>
        <mxCell id="JAojj6oCfwSo5Z4DhQhG-25" value="&lt;h1 style=&quot;margin-top: 0px;&quot;&gt;Live Data Process&lt;/h1&gt;" style="text;html=1;whiteSpace=wrap;overflow=hidden;rounded=0;align=center;fontStyle=0;labelBackgroundColor=none;" parent="1" vertex="1">
          <mxGeometry x="40" y="440" width="720" height="40" as="geometry" />
        </mxCell>
        <mxCell id="JAojj6oCfwSo5Z4DhQhG-90" value="&lt;h1 style=&quot;margin-top: 0px;&quot;&gt;Dashboard Data Model&lt;/h1&gt;" style="text;html=1;whiteSpace=wrap;overflow=hidden;rounded=0;align=center;fontStyle=0;labelBackgroundColor=none;" parent="1" vertex="1">
          <mxGeometry x="40" y="40" width="720" height="40" as="geometry" />
        </mxCell>
        <mxCell id="JAojj6oCfwSo5Z4DhQhG-121" value="Historic Usage Information" style="edgeStyle=orthogonalEdgeStyle;rounded=0;orthogonalLoop=1;jettySize=auto;html=1;exitX=1;exitY=0.5;exitDx=0;exitDy=0;entryX=0;entryY=0.5;entryDx=0;entryDy=0;labelBackgroundColor=none;fontColor=#000000;" parent="1" source="JAojj6oCfwSo5Z4DhQhG-93" target="JAojj6oCfwSo5Z4DhQhG-96" edge="1">
          <mxGeometry relative="1" as="geometry" />
        </mxCell>
        <mxCell id="JAojj6oCfwSo5Z4DhQhG-93" value="S3 Bucket" style="rounded=1;whiteSpace=wrap;html=1;fontColor=#000000;labelBackgroundColor=none;strokeColor=#000000;" parent="1" vertex="1">
          <mxGeometry x="40" y="240" width="120" height="80" as="geometry" />
        </mxCell>
        <mxCell id="JAojj6oCfwSo5Z4DhQhG-95" value="GitHub RESTful API" style="rounded=1;whiteSpace=wrap;html=1;fontColor=#000000;labelBackgroundColor=none;" parent="1" vertex="1">
          <mxGeometry x="640" y="160" width="120" height="240" as="geometry" />
        </mxCell>
        <mxCell id="JAojj6oCfwSo5Z4DhQhG-96" value="Copilot Usage Dashboard" style="rounded=1;whiteSpace=wrap;html=1;fontColor=#000000;labelBackgroundColor=none;" parent="1" vertex="1">
          <mxGeometry x="320" y="160" width="160" height="240" as="geometry" />
        </mxCell>
        <mxCell id="JAojj6oCfwSo5Z4DhQhG-115" value="Returns Access Token&lt;div&gt;for future requests&lt;/div&gt;" style="edgeStyle=orthogonalEdgeStyle;rounded=0;orthogonalLoop=1;jettySize=auto;html=1;exitX=0;exitY=0.75;exitDx=0;exitDy=0;entryX=1;entryY=0.25;entryDx=0;entryDy=0;fontColor=#000000;labelBackgroundColor=none;" parent="1" edge="1" target="JAojj6oCfwSo5Z4DhQhG-96">
          <mxGeometry relative="1" as="geometry">
            <mxPoint x="640" y="219.75" as="sourcePoint" />
            <mxPoint x="480" y="219.75" as="targetPoint" />
            <mxPoint as="offset" />
          </mxGeometry>
        </mxCell>
        <mxCell id="JAojj6oCfwSo5Z4DhQhG-117" value="Get request with access&lt;div&gt;token&lt;/div&gt;" style="edgeStyle=orthogonalEdgeStyle;rounded=0;orthogonalLoop=1;jettySize=auto;html=1;exitX=1;exitY=0.75;exitDx=0;exitDy=0;entryX=0;entryY=0.25;entryDx=0;entryDy=0;fontColor=#000000;labelBackgroundColor=none;" parent="1" edge="1" source="JAojj6oCfwSo5Z4DhQhG-96">
          <mxGeometry relative="1" as="geometry">
            <mxPoint x="480" y="339.25" as="sourcePoint" />
            <mxPoint x="640" y="339.25" as="targetPoint" />
            <mxPoint as="offset" />
          </mxGeometry>
        </mxCell>
        <mxCell id="JAojj6oCfwSo5Z4DhQhG-118" value="Returns Usage&lt;div&gt;Information for last&lt;/div&gt;&lt;div&gt;28 days&lt;/div&gt;" style="edgeStyle=orthogonalEdgeStyle;rounded=0;orthogonalLoop=1;jettySize=auto;html=1;exitX=0;exitY=0.75;exitDx=0;exitDy=0;entryX=1.017;entryY=0.913;entryDx=0;entryDy=0;fontColor=#000000;labelBackgroundColor=none;entryPerimeter=0;" parent="1" edge="1" target="JAojj6oCfwSo5Z4DhQhG-96">
          <mxGeometry relative="1" as="geometry">
            <mxPoint as="offset" />
            <mxPoint x="640" y="379.25" as="sourcePoint" />
            <mxPoint x="480" y="379.25" as="targetPoint" />
          </mxGeometry>
        </mxCell>
        <mxCell id="yCTr9eyWwM7qKFxM0R0S-3" value="Get request with&lt;div&gt;Installation ID&lt;/div&gt;" style="edgeStyle=orthogonalEdgeStyle;rounded=0;orthogonalLoop=1;jettySize=auto;html=1;exitX=0;exitY=0.75;exitDx=0;exitDy=0;entryX=1;entryY=0.25;entryDx=0;entryDy=0;fontColor=#000000;labelBackgroundColor=none;" edge="1" parent="1">
          <mxGeometry relative="1" as="geometry">
            <mxPoint x="480" y="180.25" as="sourcePoint" />
            <mxPoint x="640" y="180" as="targetPoint" />
            <mxPoint as="offset" />
          </mxGeometry>
        </mxCell>
        <mxCell id="yCTr9eyWwM7qKFxM0R0S-4" value="Historic Data Process (If enabled)" style="text;html=1;align=left;verticalAlign=middle;whiteSpace=wrap;rounded=0;" vertex="1" parent="1">
          <mxGeometry x="40" y="120" width="360" height="40" as="geometry" />
        </mxCell>
        <mxCell id="yCTr9eyWwM7qKFxM0R0S-5" value="Live Data Process" style="text;html=1;align=right;verticalAlign=middle;whiteSpace=wrap;rounded=0;" vertex="1" parent="1">
          <mxGeometry x="400" y="120" width="360" height="40" as="geometry" />
        </mxCell>
      </root>
    </mxGraphModel>
  </diagram>
</mxfile>
